<?xml version="1.0" standalone="no"?>
<!DOCTYPE svg PUBLIC "-//W3C//DTD SVG 20010904//EN"
 "http://www.w3.org/TR/2001/REC-SVG-20010904/DTD/svg10.dtd">
<svg version="1.0" xmlns="http://www.w3.org/2000/svg"
 width="225.000000pt" height="225.000000pt" viewBox="0 0 225.000000 225.000000"
 preserveAspectRatio="xMidYMid meet">

<g transform="translate(0.000000,225.000000) scale(0.100000,-0.100000)"
fill="#000000" stroke="none">
<path d="M0 1125 l0 -1125 1125 0 1125 0 0 268 0 267 -92 0 c-111 0 -161 19
-236 89 -96 90 -147 261 -125 423 33 239 168 373 378 373 l75 0 0 415 0 415
-1125 0 -1125 0 0 -1125z m979 203 c86 -202 158 -368 161 -368 3 0 75 165 161
368 l156 367 171 3 c95 1 172 -1 172 -6 0 -4 -15 -13 -33 -20 -19 -7 -39 -23
-45 -38 -9 -18 -12 -165 -12 -513 0 -472 1 -489 20 -514 11 -13 31 -28 45 -31
14 -4 25 -11 25 -16 0 -6 -81 -10 -215 -10 -121 0 -215 4 -215 9 0 5 13 14 29
19 62 22 61 13 59 507 l-3 449 -206 -485 c-128 -301 -211 -485 -220 -487 -11
-2 -68 121 -215 467 l-199 469 -3 -429 c-1 -296 1 -436 9 -450 6 -12 26 -27
45 -35 19 -8 34 -16 34 -19 0 -3 -57 -5 -127 -4 -115 1 -125 2 -98 14 17 7 39
23 50 35 19 21 20 37 20 514 0 456 -1 494 -18 519 -10 16 -31 30 -47 34 -17 3
-30 10 -30 14 0 6 81 8 187 7 l186 -3 156 -367z"/>
<path d="M2103 1350 c-46 -28 -83 -107 -97 -207 l-6 -43 125 0 125 0 0 114 c0
112 -1 115 -26 135 -33 26 -80 27 -121 1z"/>
<path d="M2002 987 c6 -72 40 -148 90 -197 36 -36 101 -69 136 -70 22 0 22 0
22 165 l0 165 -126 0 -127 0 5 -63z"/>
</g>
</svg>
