<?xml version="1.0" standalone="no"?>
<!DOCTYPE svg PUBLIC "-//W3C//DTD SVG 20010904//EN"
 "http://www.w3.org/TR/2001/REC-SVG-20010904/DTD/svg10.dtd">
<svg version="1.0" xmlns="http://www.w3.org/2000/svg"
 width="2000.000000pt" height="2000.000000pt" viewBox="0 0 2000.000000 2000.000000"
 preserveAspectRatio="xMidYMid meet">

<g transform="translate(0.000000,2000.000000) scale(0.100000,-0.100000)"
fill="#000000" stroke="none">
<path d="M5880 15410 c-787 -52 -1300 -543 -1405 -1345 -21 -154 -23 -453 -6
-600 69 -575 337 -996 775 -1217 452 -227 1123 -233 1569 -12 134 66 222 129
328 234 222 219 338 485 369 846 15 161 3 278 -36 364 -34 77 -110 149 -189
181 -60 24 -62 24 -503 27 -493 3 -512 1 -593 -61 -24 -18 -54 -54 -68 -82
-22 -42 -26 -63 -26 -135 0 -72 4 -93 26 -135 14 -28 44 -64 67 -82 71 -54
121 -63 339 -63 l193 0 0 -48 c0 -217 -167 -430 -395 -507 -128 -43 -317 -49
-448 -16 -207 54 -378 207 -479 428 -80 178 -120 463 -100 715 36 441 201 710
499 815 73 26 89 28 238 28 178 0 212 -7 340 -74 85 -44 186 -142 270 -261 70
-98 140 -158 222 -191 48 -20 76 -24 168 -24 98 0 116 3 165 26 70 33 126 89
159 159 23 49 26 67 26 167 l0 111 -53 104 c-221 435 -795 692 -1452 648z"/>
<path d="M2928 15400 c-203 -37 -347 -144 -442 -330 -54 -105 -877 -2363 -901
-2473 -70 -316 117 -537 435 -514 104 8 161 30 225 89 79 72 110 135 195 398
l76 235 554 0 553 0 71 -231 c83 -266 110 -326 180 -393 154 -145 450 -131
599 28 112 120 131 287 58 503 -111 327 -823 2245 -868 2337 -46 96 -66 125
-126 185 -78 77 -157 122 -262 150 -70 19 -279 29 -347 16z m321 -1332 c101
-332 186 -611 188 -620 5 -17 -18 -18 -377 -18 -301 0 -381 3 -377 13 2 6 85
285 183 619 99 334 184 608 190 608 5 0 93 -271 193 -602z"/>
<path d="M7990 15396 c-164 -36 -263 -150 -290 -334 -6 -40 -10 -567 -10
-1317 0 -750 4 -1277 10 -1317 28 -192 129 -303 308 -338 73 -15 183 -8 259
15 102 31 186 118 225 233 l23 67 3 1274 c2 767 -1 1309 -7 1360 -12 112 -42
189 -96 248 -91 102 -260 145 -425 109z"/>
<path d="M8850 15349 c-106 -21 -191 -86 -234 -178 -30 -66 -29 -217 1 -282
31 -69 85 -122 155 -155 l63 -29 343 -3 342 -3 0 -1107 c0 -676 4 -1134 10
-1177 14 -95 58 -182 121 -239 143 -129 423 -127 572 3 33 30 78 103 100 164
9 23 13 347 17 1192 l5 1160 3788 3 3787 2 0 -4730 0 -4730 -1692 0 -1693 0
-194 331 c-106 182 -190 334 -185 338 5 4 41 29 80 54 39 26 105 82 146 125
121 127 196 273 240 466 25 109 29 339 9 456 -81 461 -386 739 -908 827 -97
16 -176 18 -748 18 -591 0 -644 -1 -695 -18 -113 -37 -192 -118 -233 -236
l-22 -66 -3 -1265 c-2 -905 0 -1288 8 -1345 22 -154 103 -267 228 -317 48 -19
76 -22 177 -22 103 0 129 3 180 24 82 32 164 114 194 194 35 93 40 175 41 579
l0 377 233 0 232 0 262 -473 c145 -259 274 -495 288 -524 31 -61 99 -127 163
-156 l47 -22 2130 0 2130 0 56 28 c66 32 132 99 162 165 l22 47 0 5145 0 5145
-22 47 c-30 66 -96 133 -162 165 l-56 28 -4720 1 c-2665 1 -4739 -2 -4765 -7z
m4603 -8124 c238 -50 382 -263 349 -514 -25 -187 -122 -307 -295 -364 -56 -19
-92 -21 -359 -25 l-298 -4 0 461 0 461 268 0 c193 0 286 -4 335 -15z"/>
<path d="M4760 11646 c-164 -36 -263 -150 -290 -334 -13 -93 -13 -1781 0
-1911 49 -478 337 -830 807 -987 356 -119 801 -119 1158 0 471 158 759 514
805 994 13 139 13 1813 0 1904 -14 96 -45 170 -95 225 -146 163 -474 163 -620
0 -51 -56 -82 -132 -95 -231 -5 -39 -10 -463 -10 -942 0 -827 -1 -875 -19
-946 -53 -206 -177 -333 -374 -385 -83 -22 -261 -22 -344 0 -197 52 -321 179
-374 385 -18 71 -19 118 -19 936 0 474 -4 897 -9 941 -13 107 -43 184 -96 242
-91 102 -260 145 -425 109z"/>
<path d="M11558 11650 c-203 -37 -347 -144 -442 -330 -54 -105 -877 -2363
-901 -2473 -70 -316 117 -537 435 -514 104 8 161 30 225 89 79 72 110 135 195
398 l76 235 554 0 553 0 71 -231 c83 -266 110 -326 180 -393 154 -145 450
-131 599 28 112 120 131 287 58 503 -111 327 -823 2245 -868 2337 -46 96 -66
125 -126 185 -78 77 -157 122 -262 150 -70 19 -279 29 -347 16z m321 -1332
c101 -332 186 -611 188 -620 5 -17 -18 -18 -377 -18 -301 0 -381 3 -377 13 2
6 85 285 183 619 99 334 184 608 190 608 5 0 93 -271 193 -602z"/>
<path d="M1955 11596 c-166 -42 -258 -151 -285 -334 -14 -98 -13 -2502 1
-2595 22 -148 105 -260 227 -309 48 -19 76 -22 177 -22 103 0 129 3 180 24 82
32 164 114 194 194 35 93 40 175 41 579 l0 377 233 0 232 0 270 -486 c149
-267 290 -511 315 -542 90 -112 172 -152 309 -152 91 1 148 13 216 46 176 88
249 298 171 495 -13 31 -119 220 -236 419 -117 199 -209 365 -204 369 5 4 41
29 80 54 90 59 209 183 264 275 98 166 143 337 143 552 2 331 -89 568 -289
761 -148 142 -339 232 -599 281 -103 20 -150 21 -750 24 -492 2 -652 0 -690
-10z m1138 -621 c238 -50 382 -263 349 -514 -25 -187 -122 -307 -295 -364 -56
-19 -92 -21 -359 -25 l-298 -4 0 461 0 461 268 0 c193 0 286 -4 335 -15z"/>
<path d="M7795 11596 c-165 -41 -258 -151 -285 -334 -6 -40 -10 -549 -10
-1267 0 -718 4 -1227 10 -1267 28 -190 133 -307 305 -339 36 -6 304 -9 753 -6
596 3 709 6 779 20 351 71 598 236 728 487 66 129 86 210 92 376 5 120 2 152
-16 225 -57 231 -230 431 -450 524 -84 35 -203 65 -257 65 -50 0 -68 17 -27
25 76 16 198 61 255 93 35 20 101 75 148 122 68 68 94 102 128 170 61 124 75
198 69 355 -8 212 -66 353 -203 491 -117 118 -273 196 -491 246 -95 21 -119
22 -788 24 -530 2 -702 0 -740 -10z m1161 -589 c126 -36 207 -105 245 -206 30
-81 24 -224 -13 -296 -49 -94 -147 -164 -273 -194 -29 -7 -164 -15 -317 -18
l-268 -5 0 372 0 372 288 -5 c215 -3 300 -8 338 -20z m39 -1232 c90 -19 187
-67 237 -117 22 -22 54 -70 71 -106 30 -62 32 -74 31 -172 -1 -128 -23 -194
-91 -270 -49 -54 -147 -108 -238 -130 -31 -8 -169 -14 -362 -17 l-313 -5 0
416 0 416 298 0 c223 0 314 -4 367 -15z"/>
<path d="M13665 11596 c-166 -42 -258 -151 -285 -334 -14 -98 -13 -2502 1
-2595 22 -148 105 -260 227 -309 48 -19 76 -22 177 -22 103 0 129 3 180 24 82
32 164 114 194 194 35 93 40 175 41 579 l0 377 233 0 232 0 270 -486 c149
-267 290 -511 315 -542 90 -112 172 -152 309 -152 91 1 148 13 216 46 176 88
249 298 171 495 -13 31 -119 220 -236 419 -117 199 -209 365 -204 369 5 4 41
29 80 54 90 59 209 183 264 275 98 166 143 337 143 552 2 331 -89 568 -289
761 -148 142 -339 232 -599 281 -103 20 -150 21 -750 24 -492 2 -652 0 -690
-10z m1138 -621 c238 -50 382 -263 349 -514 -25 -187 -122 -307 -295 -364 -56
-19 -92 -21 -359 -25 l-298 -4 0 461 0 461 268 0 c193 0 286 -4 335 -15z"/>
<path d="M7585 7904 c-11 -2 -45 -9 -75 -15 -123 -25 -242 -112 -299 -218 -70
-132 -66 -41 -66 -1491 0 -1203 1 -1309 17 -1360 34 -110 113 -192 212 -222
23 -7 87 -13 143 -13 96 1 105 2 169 35 78 40 119 87 156 177 l23 58 5 900 5
900 22 -46 c12 -26 175 -429 363 -895 188 -467 356 -876 374 -909 57 -104 150
-155 287 -155 123 0 219 50 273 143 19 32 434 1049 743 1819 8 21 19 35 24 32
5 -3 9 -380 9 -889 0 -868 0 -884 21 -951 17 -56 31 -77 78 -124 75 -76 130
-95 267 -95 93 1 105 3 167 33 78 38 127 92 159 171 l23 56 0 1330 0 1330 -23
72 c-47 150 -155 258 -305 305 -99 31 -309 31 -404 0 -129 -41 -226 -129 -300
-269 -22 -43 -195 -471 -383 -950 -189 -480 -348 -873 -354 -873 -6 0 -164
388 -351 863 -187 474 -359 901 -383 950 -101 204 -241 294 -472 302 -58 2
-114 2 -125 -1z"/>
<path d="M11240 7896 c-164 -36 -263 -150 -290 -334 -6 -40 -10 -567 -10
-1317 0 -750 4 -1277 10 -1317 28 -192 129 -303 308 -338 73 -15 183 -8 259
15 102 31 186 118 225 233 l23 67 3 1274 c2 767 -1 1309 -7 1360 -12 112 -42
189 -96 248 -91 102 -260 145 -425 109z"/>
<path d="M1955 7846 c-165 -41 -258 -150 -285 -334 -6 -40 -10 -549 -10 -1267
0 -718 4 -1227 10 -1267 27 -188 132 -306 301 -338 30 -6 281 -10 588 -10 580
0 693 7 887 54 608 149 988 616 1063 1308 16 143 13 438 -4 575 -50 383 -181
671 -405 893 -223 222 -531 353 -915 390 -160 15 -1166 12 -1230 -4z m1129
-670 c413 -95 628 -450 603 -993 -16 -332 -104 -560 -273 -712 -76 -67 -174
-117 -292 -148 -89 -23 -119 -26 -364 -30 l-268 -5 0 957 0 958 263 -6 c186
-4 282 -10 331 -21z"/>
<path d="M4985 7846 c-165 -41 -258 -151 -285 -334 -6 -40 -10 -549 -10 -1267
0 -718 4 -1227 10 -1267 27 -189 133 -307 304 -339 33 -6 361 -9 872 -7 l819
3 56 23 c76 30 132 81 166 150 25 50 28 68 28 152 0 75 -5 105 -22 141 -31 69
-85 122 -155 155 l-63 29 -592 3 -593 3 0 329 0 330 538 0 c556 0 590 2 667
43 45 23 91 76 117 132 17 39 22 68 22 131 0 104 -33 177 -101 229 -90 69 -87
68 -695 73 l-548 3 0 319 0 319 593 3 592 3 63 29 c70 32 124 86 156 155 17
37 21 65 21 141 0 84 -3 102 -28 152 -34 69 -90 120 -166 150 l-56 23 -830 2
c-634 1 -842 -1 -880 -11z"/>
</g>
</svg>
