<svg width="24" height="24" viewBox="0 0 30 28" fill="none" xmlns="http://www.w3.org/2000/svg">
<g>
<path d="M24.525 26.0609C23.4545 25.842 22.4326 25.5987 21.581 25.4283L20.1456 25.1121L20.3159 23.6522C20.3159 23.5793 20.3402 23.5063 20.3402 23.4333C20.3402 23.117 20.2915 22.825 20.1699 22.5331L19.8293 21.7545L20.2915 21.0246C20.5592 20.5867 20.6808 20.1001 20.6808 19.5405C20.6808 18.9565 20.5105 18.4456 20.1942 18.0077L19.6346 17.2534L19.9996 16.3776C20.1456 16.0369 20.2186 15.672 20.2186 15.307C20.2186 14.7961 20.2186 13.2633 17.8099 12.3388C17.4693 12.2171 16.788 12.0225 15.5229 11.9495L12.9195 11.7792L14.1604 9.51648C15.1579 7.71605 15.7175 6.08594 15.7175 4.94242C15.7175 3.89623 15.3769 2.97169 14.5983 2.6554C11.8977 1.48755 9.97559 3.31231 8.61311 5.55067C7.51826 7.37543 6.15577 9.71112 5.32855 11.4385C3.55245 15.1854 0.924805 17.886 0.924805 21.6329C0.924805 25.0391 3.21183 27.7154 7.39661 29.1265C12.5303 30.8539 20.1942 31.3162 23.5274 31.3162C25.9118 31.3162 27.2256 30.3917 27.2256 28.6886C27.2256 26.9125 25.5468 26.2799 24.525 26.0609Z" fill="#F9BF2D"></path>
<path d="M23.4542 24.5526C20.6806 23.9443 18.2962 23.4334 18.2962 23.4334C18.7098 23.1415 19.1478 22.5332 19.1478 21.779C19.1478 20.9031 18.6855 20.3922 18.3205 20.1245C18.8071 19.7596 19.4641 19.1027 19.4641 17.9105C19.4641 16.621 18.5882 15.9641 18.1259 15.6478C18.4909 15.3072 19.0018 14.6259 19.0018 13.6771C19.0018 11.9983 17.7123 11.244 16.6661 10.8304C15.8145 10.5141 14.2088 10.3925 12.7976 10.3925C10.4863 10.3925 8.39388 10.5628 7.39634 10.5628C6.20417 10.5628 6.35015 9.95455 6.78809 9.39496C7.05572 9.07867 10.4376 4.62627 11.0702 3.82338C11.5081 3.23945 12.0191 2.67986 12.4083 2.89883C12.8219 3.1178 12.6516 4.13967 12.2137 5.25885C11.5568 7.01062 10.6322 8.1298 10.4133 8.51908L11.9704 9.46795C12.5786 8.71372 14.5494 5.42916 14.5494 3.31244C14.5494 2.36357 14.1844 1.56068 13.4789 1.12274C12.7733 0.709126 11.8731 0.733456 11.0702 1.22006C10.5349 1.53635 9.99966 1.99862 9.53739 2.58254C8.32089 4.13967 5.7419 7.3999 4.79303 8.6164C3.43054 10.3925 4.06312 12.5822 6.9584 12.5822C7.98026 12.5822 11.3135 12.3389 12.603 12.3389C14.0871 12.3389 14.817 12.4119 15.3279 12.4849C16.3011 12.6309 16.8607 13.0688 16.8607 13.6527C16.8607 14.0663 16.6661 14.3583 16.3255 14.6016C15.9849 14.8449 15.6686 15.2099 15.6686 15.7208C15.6686 16.329 16.2282 16.5723 16.5931 16.8156C17.0797 17.1319 17.3717 17.3509 17.3717 17.8618C17.3717 18.3241 17.0311 18.5917 16.6418 18.8837C16.3255 19.127 15.9119 19.3946 15.9119 19.9542C15.9119 20.4651 16.2768 20.7084 16.5201 20.9031C16.7634 21.0977 17.0311 21.3167 17.0311 21.7303C17.0311 22.1439 16.8364 22.3386 16.3498 22.6305C15.9605 22.8495 15.4009 23.2631 15.4009 23.847C15.4009 24.5039 15.8632 24.7959 16.4228 24.9419C17.761 25.2582 21.7511 26.1097 23.1136 26.426C23.5515 26.5233 23.9895 26.6693 23.9895 27.0343C23.9895 27.3992 23.4055 27.5695 22.5783 27.5695C19.7074 27.5695 11.7271 26.9856 7.03139 25.3555C3.84415 24.285 2.09239 22.3142 2.09239 19.9542C2.09239 17.9105 3.45487 16.0857 4.939 15.0395L3.60085 13.6771C1.4598 15.1612 0 17.5212 0 20.0029C0 22.8738 1.70311 25.7934 6.39881 27.3749C11.3865 29.0537 18.9531 29.5646 22.481 29.5646C24.8897 29.5646 26.0575 28.5671 26.0575 27.0586C26.0332 25.6231 24.8653 24.8446 23.4542 24.5526Z" fill="#222222"></path>
</g>
</svg>
